<mxfile host="app.diagrams.net" modified="2022-02-01T14:55:56.537Z" agent="5.0 (Windows NT 10.0; Win64; x64) AppleWebKit/537.36 (KHTML, like Gecko) Chrome/97.0.4692.99 Safari/537.36" etag="IAl4rkVE9FT8KGAfmqaI" version="15.7.0" type="github">
  <diagram id="uAhVRpg266Ufn0skI3OT" name="Page-1">
    <mxGraphModel dx="1038" dy="621" grid="1" gridSize="10" guides="1" tooltips="1" connect="1" arrows="1" fold="1" page="1" pageScale="1" pageWidth="827" pageHeight="1169" math="0" shadow="0">
      <root>
        <mxCell id="0" />
        <mxCell id="1" parent="0" />
        <mxCell id="ZGV11O1MHQPh3PrhPjDB-3" value="" style="edgeStyle=orthogonalEdgeStyle;rounded=0;orthogonalLoop=1;jettySize=auto;html=1;fontFamily=Times New Roman;" edge="1" parent="1" source="ZGV11O1MHQPh3PrhPjDB-1" target="ZGV11O1MHQPh3PrhPjDB-2">
          <mxGeometry relative="1" as="geometry" />
        </mxCell>
        <mxCell id="ZGV11O1MHQPh3PrhPjDB-1" value="&lt;b&gt;Página de registo&lt;/b&gt;" style="rounded=0;whiteSpace=wrap;html=1;fontFamily=Times New Roman;" vertex="1" parent="1">
          <mxGeometry x="78" y="290" width="120" height="60" as="geometry" />
        </mxCell>
        <mxCell id="ZGV11O1MHQPh3PrhPjDB-6" value="" style="edgeStyle=orthogonalEdgeStyle;rounded=0;orthogonalLoop=1;jettySize=auto;html=1;fontFamily=Times New Roman;fontSize=10;" edge="1" parent="1" source="ZGV11O1MHQPh3PrhPjDB-2" target="ZGV11O1MHQPh3PrhPjDB-5">
          <mxGeometry relative="1" as="geometry" />
        </mxCell>
        <mxCell id="ZGV11O1MHQPh3PrhPjDB-2" value="&lt;b&gt;Página a pedir para verificar o email&lt;/b&gt;" style="whiteSpace=wrap;html=1;rounded=0;fontFamily=Times New Roman;" vertex="1" parent="1">
          <mxGeometry x="300" y="290" width="120" height="60" as="geometry" />
        </mxCell>
        <mxCell id="ZGV11O1MHQPh3PrhPjDB-4" value="&lt;font style=&quot;font-size: 10px&quot;&gt;Continuar&lt;/font&gt;" style="text;html=1;strokeColor=none;fillColor=none;align=center;verticalAlign=middle;whiteSpace=wrap;rounded=0;fontFamily=Times New Roman;fontSize=10;" vertex="1" parent="1">
          <mxGeometry x="200" y="290" width="100" height="30" as="geometry" />
        </mxCell>
        <mxCell id="ZGV11O1MHQPh3PrhPjDB-5" value="Página a informar que a verificação de email foi concluída" style="whiteSpace=wrap;html=1;rounded=0;fontFamily=Times New Roman;fontStyle=1" vertex="1" parent="1">
          <mxGeometry x="520" y="290" width="120" height="60" as="geometry" />
        </mxCell>
        <mxCell id="ZGV11O1MHQPh3PrhPjDB-7" value="Utilizador verifica o email" style="text;html=1;strokeColor=none;fillColor=none;align=center;verticalAlign=middle;whiteSpace=wrap;rounded=0;fontFamily=Times New Roman;fontSize=10;" vertex="1" parent="1">
          <mxGeometry x="430" y="290" width="80" height="30" as="geometry" />
        </mxCell>
      </root>
    </mxGraphModel>
  </diagram>
</mxfile>
